<svg xmlns="http://www.w3.org/2000/svg" viewBox="0 0 256 256" role="img" aria-label="Cricket favicon">
  <defs>
    <linearGradient id="bg" x1="0" y1="0" x2="1" y2="1">
      <stop offset="0%" stop-color="#0f172a"/>
      <stop offset="100%" stop-color="#1e293b"/>
    </linearGradient>
    <linearGradient id="bat" x1="0" y1="0" x2="1" y2="1">
      <stop offset="0%" stop-color="#f59e0b"/>
      <stop offset="100%" stop-color="#d97706"/>
    </linearGradient>
  </defs>

  <rect x="8" y="8" width="240" height="240" rx="56" fill="url(#bg)"/>
  <g fill="#38bdf8">
    <rect x="48" y="104" width="10" height="78" rx="4"/>
    <rect x="64" y="100" width="10" height="82" rx="4"/>
    <rect x="80" y="104" width="10" height="78" rx="4"/>
    <rect x="48" y="94" width="42" height="7" rx="3"/>
  </g>
  <g transform="rotate(-38 156 154)">
    <rect x="126" y="68" width="40" height="120" rx="18" fill="url(#bat)"/>
    <rect x="141" y="182" width="10" height="30" rx="5" fill="#e2e8f0"/>
    <circle cx="146" cy="218" r="8" fill="#e2e8f0"/>
  </g>
  <g>
    <circle cx="182" cy="86" r="24" fill="#2563eb"/>
    <path d="M170 69c8 5 16 29 24 34" stroke="#bfdbfe" stroke-width="4" stroke-linecap="round" fill="none"/>
    <path d="M167 74c8 5 16 29 24 34" stroke="#bfdbfe" stroke-width="2.5" stroke-linecap="round" fill="none" opacity=".85"/>
  </g>
</svg>
